<svg width="29" height="63" viewBox="0 0 29 63" fill="none" xmlns="http://www.w3.org/2000/svg">
<path d="M4.47849 62.2574C4.64885 62.7967 5.20792 63.118 5.7272 62.9749C6.24648 62.8319 6.52934 62.2787 6.35898 61.7394L5.41873 61.9984L4.47849 62.2574ZM28.3775 4.05894C28.512 3.52695 28.1916 2.9592 27.6619 2.79085L19.03 0.0473579C18.5003 -0.120997 17.9619 0.173791 17.8274 0.705784C17.6928 1.23778 18.0132 1.80552 18.5429 1.97387L26.2157 4.41253L24.267 12.1186C24.1324 12.6506 24.4528 13.2183 24.9825 13.3867C25.5122 13.555 26.0506 13.2603 26.1852 12.7283L28.3775 4.05894ZM5.41873 61.9984L6.35898 61.7394C3.60046 53.0062 0.695627 43.3444 2.57738 33.5758C4.44541 23.8786 11.0857 13.8693 27.9243 4.65078L27.4184 3.75411L26.9124 2.85743C9.75115 12.2526 2.64145 22.6587 0.634559 33.0768C-1.3586 43.4237 1.73671 53.5772 4.47849 62.2574L5.41873 61.9984Z" fill="#2E2D2B"/>
</svg>
