<svg width="227" height="192" viewBox="0 0 227 192" fill="none" xmlns="http://www.w3.org/2000/svg">
<g clip-path="url(#clip0_1259_677)">
<path d="M164.552 163.982C163.251 165.411 159.856 161.774 159.058 163.614C158.887 164.016 159.614 164.431 159.989 164.613L172.169 170.583C172.9 169.397 171.67 169.072 171.172 168.513C171.219 165.559 188.77 175.071 190.014 175.754C191.724 176.696 193.39 176.227 194.706 174.817C196.828 172.542 199.312 171.496 201.961 170.172L213.111 164.594C215.637 163.332 217.817 161.697 220.338 160.397C221.763 159.661 224.907 162.424 224.916 160.613C224.916 159.939 223.962 160.335 223.002 159.255C222.793 159.021 222.537 159.637 222.152 159.867C220.747 159.36 219.355 159.05 218.486 157.195C223.159 157.033 219.588 155.111 225.747 158.93C225.785 163.633 226.645 168.231 226.151 173.001C225.263 174.76 222.585 175.974 220.828 176.882C213.985 180.414 207.489 183.827 201.149 188.128C199.236 189.429 197.218 190.026 195.067 190.666C194.103 190.953 192.982 192.449 191.804 191.88L178.029 185.261C174.192 183.416 170.626 181.676 166.798 179.812L144.385 168.891C137.352 165.464 130.225 162.797 123.662 158.514C123.487 158.4 124.213 157.539 124.318 157.391C124.465 157.181 123.871 157.028 123.738 156.574C128.107 156.923 128.976 159.16 133.815 161.076C135.448 161.721 137.058 162.104 138.25 163.495C138.407 163.681 138.521 164.145 138.739 164.149C138.929 164.154 139.1 163.753 139.238 163.691C140.748 163.017 129.114 157.946 127.613 157.114C122.618 154.366 117.527 152.248 112.432 150.413C113.676 151.742 115.196 152.698 116.506 153.223C117.076 153.453 118.966 153.023 118.425 154.246C117.85 155.541 116.606 155.513 115.632 154.844C115.243 154.581 114.744 154.585 114.545 154.237C114.322 153.84 114.735 153.467 114.778 152.554C112.873 153.563 111.634 153.051 110.062 152.306C107.156 150.929 91.899 143.631 90.332 142.331C89.9379 142.001 90.8876 140.964 91.2247 141.231C91.4479 141.408 91.88 141.829 92.8297 141.571C90.256 139.544 81.3334 135.195 77.5441 134.143C79.396 136.294 82.4588 135.721 83.6175 138.483C82.5918 139.205 81.8795 137.499 81.2432 137.231C77.4016 137.369 80.322 136.514 75.9865 135.209C75.1983 134.97 74.7139 134.296 74.0729 134.038C72.3064 133.321 69.7707 133.56 68.5645 131.691C69.1344 129.622 72.4156 134.177 71.5561 131.452C71.5324 131.371 64.7277 127.992 64.4285 128.389C65.4542 130.224 67.667 129.354 68.4173 131.61C67.8048 131.768 62.2632 129.292 62.1682 128.58C62.135 128.346 62.5576 128.068 62.89 127.495C61.2232 126.31 58.9724 125.349 57.0587 124.512C56.4034 125.115 55.9856 126.233 55.0691 125.808C55.1735 125.115 55.7386 124.938 56.4082 124.202C54.9931 123.303 53.0414 122.137 51.2892 122.104C51.0328 123.284 50.8144 124.307 49.6747 124.02C48.3641 123.686 47.989 123.188 48.0317 122.204C46.9443 122.505 45.8853 122.763 45.1636 122.013C46.1845 121.654 46.4219 120.76 46.7923 120.698C48.1694 120.99 49.1381 122.515 50.7811 122.032C49.3091 120.445 47.1247 120.345 44.9879 119.666C45.0971 120.469 45.5862 120.483 45.7334 120.708C46.042 121.167 45.477 121.281 45.363 121.568C45.0353 122.419 44.475 121.296 44.0191 121.162C42.927 120.847 41.963 120.727 40.8519 120.168C33.9284 116.679 26.7961 113.969 20.1908 109.863C20.3713 109.978 16.1783 105.882 14.578 106.752C14.7537 105.944 14.9389 105.6 14.8059 105.38C14.6397 105.107 14.0414 104.625 13.88 104.978C13.7565 105.251 13.9084 105.609 13.8942 105.757C13.8372 106.288 13.2721 105.992 13.0205 105.71C12.859 105.523 12.7925 105.246 13.0964 104.711C13.2199 104.491 12.5646 104.247 12.4506 104.438C12.2939 104.701 12.2417 105.026 11.8761 105.571C10.9643 104.553 0.859371 99.219 0.873617 99.2524C0.488983 98.5737 -0.541458 88.6991 0.417754 86.8781C4.67248 83.6423 7.9205 82.8203 12.2132 79.8522C12.5836 76.3057 12.3367 72.1953 12.3129 68.4624C13.614 68.104 14.3453 66.2877 15.0813 65.8193C19.2221 63.1906 23.8045 61.599 28.3489 59.6346C30.253 59.7111 31.8391 61.4365 33.5865 61.2357C37.751 60.753 38.1499 60.8534 42.3666 64.5241L41.9725 62.5979C41.9583 62.5358 58.9914 53.316 60.7959 53.3686C65.3402 53.2682 70.0366 56.9007 73.712 60.0839L74.2771 47.1073C74.3008 46.5481 74.4717 46.2614 74.6142 46.0845C76.8033 43.3363 74.8991 50.0515 76.4092 49.0765C76.1338 47.3702 76.3617 46.3617 78.0997 45.726C77.2402 44.6602 76.5706 45.6591 75.6969 45.0473C78.2326 42.7532 81.4617 41.9597 84.4533 40.4159C85.6357 39.8089 86.3099 38.5041 87.9957 38.4993C90.0376 38.4946 92.2029 36.6592 94.2116 36.9699C97.4263 37.4717 99.8909 39.7133 102.693 40.9035C105.494 42.0936 108.647 42.6145 111.273 44.4021C111.701 45.6448 110.874 46.3904 111.748 47.829C112.593 46.2661 111.458 45.2242 113.04 45.076C114.046 50.7446 113.363 56.2124 113.472 61.8953C113.548 65.9054 114.118 69.686 113.154 73.5861C115.314 72.6685 127.955 64.4333 128.235 69.5904C131.436 69.3275 135.016 70.3456 137.58 72.6207C139.185 68.7205 136.559 60.1317 138.559 54.8216C139.622 52.0064 143.407 50.4244 145.805 49.1721L153.687 45.0665C160.81 41.3527 161.727 45.3819 169.866 48.3022C170.312 44.7797 169.837 41.5439 170.051 37.9736C170.569 29.3178 170.497 20.8341 170.151 12.2308C170.008 8.65572 173.622 7.66635 176.257 6.07475C179.363 4.20116 182.663 2.92024 185.816 1.37166C189.549 -0.463698 192.787 -0.487596 196.591 1.49592C198.818 2.65736 209.317 6.76301 210.808 8.76087C212.494 11.0216 211.411 14.3625 211.449 16.9148C211.473 18.6498 211.834 19.9116 210.699 21.226C209.303 22.8463 210.813 24.8823 210.946 26.4261C211.725 35.5408 211.264 44.2635 211.539 53.2969C211.663 57.326 211.862 61.0015 211.677 65.0068L211.102 77.3142C210.077 77.1613 209.863 76.5256 209.507 76.2723C208.932 75.8612 210.072 75.4072 210.851 74.9579C209.531 73.7773 209.322 72.4534 209.345 70.7853L209.554 57.6319C208.234 58.4731 208.942 59.9644 208.875 61.4413C208.666 66.0774 207.911 70.6228 208.443 75.259C208.833 78.6573 208.386 81.7735 209.213 85.1718C210.001 82.8442 208.818 80.7842 209.963 78.6955C210.124 78.4039 209.184 77.6727 209.73 76.951C211.421 78.6477 211.269 81.004 211.064 83.3412C210.903 85.2005 211.772 87.1744 211.278 89.158C211.193 89.5021 210.499 89.6981 210.352 89.8749C210.205 90.0517 211.463 90.3911 211.425 90.654C210.252 99.1425 212.342 110.876 211.653 122.022C211.354 126.84 211.359 131.572 211.378 136.457L211.444 152.105C211.444 152.984 212.228 153.429 211.335 154.452C210.566 155.326 211.734 157.205 211.045 158.318C207.812 163.528 197.07 168.011 191.296 170.253C190.551 170.544 188.87 170.425 188.267 170.071L183.081 167.017C178.755 164.47 174.329 162.042 169.875 159.212C169.657 155.479 170.203 152.157 170.374 148.061C166.599 150.379 162.942 152.525 158.787 153.577C157.035 154.017 155.554 152.459 154.082 152.019C151.878 151.364 149.927 150.657 147.832 149.658C144.66 148.143 137.856 146.178 137.984 141.939L138.25 133.364C134.062 135.271 130.448 136.409 127.062 139.071C119.593 136.605 112.94 132.924 106.558 128.465C106.254 124.809 106.202 121.779 106.268 117.907L96.5241 122.973C94.6199 123.963 93.1574 123.365 91.3529 122.906C85.9016 121.53 80.9441 119.264 76.4424 115.814C72.9522 113.137 75.374 108.228 74.0919 102.823C70.2645 104.84 66.7173 107.559 62.4294 108.721C60.8481 109.151 55.0501 106.441 54.9504 106.13C54.3188 104.175 60.0313 108.119 62.2822 107.425C61.5081 106.914 61.8928 105.647 61.1567 105.37C60.5774 105.37 60.2355 106.379 59.8366 106.46C59.2431 106.579 58.8679 106.082 58.2791 105.829L51.3604 102.871C50.5057 102.507 49.8931 101.504 48.6917 102.249C49.6889 103.301 51.0233 103.492 52.5571 104.089C52.9417 106.417 43.663 100.629 42.5139 100.084L42.1672 90.1712C38.3066 91.3375 35.2818 93.8993 31.4924 94.8218C29.1751 95.3857 27.0145 93.364 24.8682 92.6327C24.1654 92.3937 24.8349 92.0066 25.0106 91.7389C25.2718 91.3422 29.3271 93.6603 29.1134 92.4606L20.6799 88.5366C20.3143 87.9201 20.1481 87.2222 19.6447 86.8877C18.9229 86.4097 17.5601 85.6737 16.8383 86.6296C18.6523 86.7873 19.3076 87.8866 19.9819 88.8282C21.1548 90.4724 24.1321 89.6933 24.702 92.3651C20.7227 90.6826 17.1802 88.8808 13.5476 86.8494C12.4269 86.2233 12.9207 84.4214 12.7403 83.1501C9.7582 84.0964 7.45039 86.1516 4.5775 87.3943C3.2574 86.7347 3.30489 88.723 4.56326 87.9487C9.28809 89.4782 13.5381 91.7007 17.9495 93.9997C18.0302 94.7979 17.0995 94.5015 16.4537 94.4537C17.4651 96.4946 19.6067 95.1276 21.0598 95.4622C25.324 96.4372 28.7952 99.1377 32.7223 100.863C34.1469 101.489 35.9988 101.919 36.7586 103.21C36.8678 103.396 37.6751 102.985 37.846 103.105C38.1784 103.339 37.8792 103.999 38.0027 104.381C38.6818 104.395 39.4035 103.678 40.0683 104.104C40.491 104.371 41.6734 104.873 41.4027 105.38C40.6192 106.857 36.5544 104.682 37.1622 103.956C37.148 104.156 36.3502 105.146 36.0938 104.888C34.5885 103.382 32.4659 103.482 30.8466 102.383C29.8209 101.685 29.9064 101.069 28.3916 101.045C25.4427 100.992 23.3439 97.9858 20.3095 98.4303C23.7902 99.8499 26.6726 101.408 29.8019 102.933L41.925 108.831L53.1791 113.758C54.6322 114.394 60.3068 117.032 60.3163 115.756C60.3257 114.48 56.1375 115.484 53.7252 112.411C53.0747 112.559 52.1392 112.831 52.3244 111.851C52.3909 111.493 52.3671 110.699 52.7708 110.312C53.0319 110.059 53.768 110.461 54.2618 110.685L61.4607 113.964C62.6478 114.504 63.816 114.647 64.0866 116.048C64.8939 116.206 66.2852 116.258 66.7126 116.793C67.4629 117.735 67.762 117.233 68.5978 117.496C71.8553 118.514 75.0891 120.832 77.9477 122.668V124.474C77.9477 124.857 79.2678 124.637 79.5765 124.885C80.6971 125.789 81.3762 126.075 82.8007 126.147C83.6175 126.19 84.4675 127.156 85.1133 125.961C85.4125 126.596 85.3887 126.936 85.6926 127.136C85.9206 127.289 86.3147 126.998 86.8703 127.117C86.9178 127.801 86.5521 128.886 86.9415 129.598C87.1979 130.071 87.915 130.482 88.7887 130.391C88.9881 129.526 88.2379 129.015 89.0261 127.954C91.4764 129.44 94.3018 129.842 96.4149 131.73C97.4881 132.69 98.1529 135.023 100.356 135.114C106.116 135.343 105.257 136.289 110.979 138.856C110.917 139.286 110.067 140.768 110.585 141.064L120.946 146.001C121.316 146.178 122.19 145.433 122.556 145.667C123.415 146.221 123.235 147.469 123.923 147.569C124.745 147.684 124.963 145.404 126.673 146.126C127.423 146.446 127.328 147.583 127.437 148.391C132.077 151.197 137.974 152.922 142.932 155.417C153.702 160.842 149.2 157.931 151.897 158.447C156.294 159.289 160.202 162.175 164.562 163.982H164.552ZM191.747 3.63239C192.441 4.95155 193.485 3.37429 194.046 3.26914C195.408 3.01583 196.078 5.3148 197.73 4.07211C191.477 1.1518 192.032 0.755092 186.619 3.85225C185.512 4.48793 184.107 4.14381 183.542 5.52988C187.383 5.48686 190.717 0.688178 193.139 2.93935C192.578 3.22613 191.386 2.92501 191.747 3.63239ZM204.73 7.73326C203.172 6.38064 201.558 5.56334 199.611 5.63503C201.183 6.64352 202.826 7.33656 204.73 7.73326ZM173.214 9.88884C173.38 9.63075 174.035 10.5197 174.296 10.4289C174.586 10.3286 175.085 9.86017 175.507 9.93664C176.352 10.0896 176.789 11.1459 177.815 10.9595C177.801 10.2808 177.117 10.1469 176.409 9.67854C177.468 8.52667 178.712 8.01525 180.142 6.80602C178.57 6.06519 177.872 7.63289 176.742 8.23989C175.303 9.01418 173.726 8.95683 171.974 9.77414C172.378 11.5999 171.827 13.6838 172.938 15.1607C173.56 13.3301 172.074 11.6716 173.223 9.88884H173.214ZM189.226 21.4267C189.558 21.5128 189.729 20.791 189.786 20.4851C189.834 20.2318 189.644 19.7873 189.254 19.3858C188.694 20.337 187.872 20.0645 186.913 19.7778C186.742 21.3407 188.043 21.1256 189.221 21.4267H189.226ZM203.937 19.1947C203.362 22.0194 203.234 24.4856 203.215 27.124C204.26 28.9545 204.583 17.3259 203.937 19.1947ZM190.337 34.0352C190.451 31.5212 190.346 29.6332 189.625 27.3295C188.376 29.4038 188.262 32.3624 190.337 34.0352ZM203.4 41.4913L203.937 33.1749C203.994 32.2955 204.151 31.5498 203.03 31.3109C203.595 33.2705 202.128 42.084 202.792 42.2656C202.963 42.3134 203.372 41.9167 203.4 41.4913ZM94.8526 55.8109C93.2903 55.6389 92.3169 54.9602 90.7784 55.0366C91.918 56.0881 92.882 56.4657 92.5781 58.0047C94.3683 60.8343 92.3501 56.8051 94.8526 55.8109ZM96.8328 55.6675C97.1937 54.9793 96.9562 54.5348 96.2107 54.7355C94.5202 56.1025 94.7054 58.7695 96.4671 59.7493L96.8375 55.6723L96.8328 55.6675ZM63.7162 56.2554C62.1017 55.0366 61.1615 56.6235 59.9269 57.0249C59.6135 57.2352 59.2383 57.3643 59.1434 57.5889C59.0721 57.761 59.0151 58.1099 59.4188 58.5879C60.321 57.0488 61.9498 56.9819 63.7115 56.2554H63.7162ZM172.506 88.3932C172.283 90.7591 172.098 92.8048 172.435 95.185C172.549 95.9736 171.77 97.0443 173.157 97.2546L173.057 65.9675C171.02 68.5724 172.8 71.6791 172.416 74.1836C171.727 78.7098 173.142 81.654 172.506 88.3885V88.3932ZM147.595 78.6238C148.151 76.2101 147.813 73.9207 147.742 71.4449C147.69 69.7242 148.426 68.1087 147.78 66.5984C146.436 67.6643 147.196 69.1459 147.187 70.4842C147.163 73.3041 146.394 75.9568 147.6 78.6238H147.595ZM88.1334 83.9243C87.858 79.7948 88.8457 76.1623 87.744 71.9898C86.5759 74.7523 87.668 77.2951 87.4733 79.9716C87.3689 81.4151 86.8228 82.8107 88.1334 83.9196V83.9243ZM190.788 79.9143C190.389 77.7778 191.348 76.2292 190.218 74.4178C189.368 76.0428 190.304 77.4767 189.724 79.1543C189.534 79.8426 190.047 80.4066 190.793 79.9143H190.788ZM189.705 88.2068C189.207 84.1299 189.748 80.3875 188.561 76.6546C188.708 78.2749 187.986 79.6705 187.635 80.5404C190.361 84.0582 186.429 83.4846 189.701 88.2068H189.705ZM140.249 99.2142C140.444 94.8265 140.572 90.8021 140.183 86.7061C139.917 90.3194 139.257 96.5042 140.249 99.2142ZM10.6889 93.5886L9.41155 91.8441C8.33362 90.372 6.13029 90.1617 4.37806 89.9418C4.69147 91.3136 5.94509 91.1511 6.96604 91.4426C8.50457 91.8823 9.26909 93.3401 10.6842 93.5934L10.6889 93.5886ZM4.65348 97.1876C4.70097 96.7049 5.34202 96.7957 6.20152 96.9152L3.95069 95.0751C3.59455 94.7835 3.26215 94.8982 2.97249 95.2663C2.6021 95.7394 3.30489 95.5482 3.54232 96.1361C2.38366 96.4086 2.38841 97.3884 2.45489 98.0097C2.5831 99.2237 6.21101 99.5057 5.75515 99.6682C7.82553 98.937 4.46829 99.0278 4.65823 97.1924L4.65348 97.1876ZM203.728 104.443C204.283 101.771 204.084 99.9168 203.837 97.6799C203.001 99.8546 202.403 102.546 203.728 104.443ZM173.19 106.388L173.133 98.2248C172.63 98.3204 172.345 98.7075 172.169 99.1281L172.226 107.292C172.729 107.196 173.014 106.809 173.19 106.388ZM189.487 107.741C189.183 110.809 189.174 113.825 189.492 116.894C190.237 113.018 190.147 111.641 189.487 107.741ZM124.925 109.562C123.771 113.046 124.46 116.258 124.218 119.699C124.821 119.637 124.973 119.255 125.163 119.006C124.313 120.13 125.937 109.963 124.925 109.562ZM82.4588 116.492C81.5091 114.977 80.6924 113.084 78.2849 112.984C79.434 114.289 80.6734 115.594 82.4588 116.492ZM112.816 113.089C111.781 115.952 112.703 118.385 112.337 121.157C113.676 123.322 113.624 112.325 112.816 113.089ZM156.133 134.898C157.871 136.428 156.655 124.489 156.641 124.374C156.294 121.458 156.38 118.571 156.404 115.685C156.404 115.168 157.13 114.06 156.285 113.849C154.575 112.965 156.062 127.935 156.066 128.317L156.128 134.898H156.133ZM208.928 131.997L209.118 116.497C207.199 118.371 208.671 120.569 208.192 122.553C208.533 125.769 207.598 128.871 208.928 131.992V131.997ZM172.611 131.118C172.834 127.743 172.696 124.909 173.057 121.836C173.138 121.133 173.157 120.335 172.121 120.225L172.155 127.103C172.159 128.58 171.618 129.952 172.611 131.118ZM117.788 121.339C117.84 121.028 116.482 120.937 116.715 121.587C117.29 123.188 116.777 125.072 118.467 125.564C118.059 124.187 117.475 122.734 117.783 121.334L117.788 121.339ZM171.632 158.218C172.943 155.632 171.965 153.252 172.444 150.843C173.019 148.984 173.157 147.153 172.786 145.179C172.045 146.173 171.072 156.784 171.628 158.218H171.632ZM199.725 173.503C201.482 172.729 203.761 172.686 205.228 170.645L200.789 172.332C200.423 172.313 199.839 171.524 199.796 172.064C199.772 172.394 199.706 172.729 199.725 173.503ZM172.734 179.162C169.866 176.538 166.423 175.606 162.971 174.54C165.934 176.906 169.59 177.575 172.734 179.162Z" fill="#141413"/>
<path d="M120.766 144.601C119.579 142.962 118.368 145.275 118.24 143.167C116.426 144.118 115.244 142.565 113.871 141.518C113.449 141.193 112.537 141.408 112.171 141.165C111.587 140.768 111.041 140.256 111.597 139.042C114.973 140.51 118.354 141.877 121.592 143.822C121.54 144.29 120.961 144.874 120.766 144.601Z" fill="#141413"/>
<path d="M168.973 165.875C169.301 166.2 164.856 167.452 165.222 165.908C165.312 165.536 165.407 164.269 166.005 164.924C166.822 165.813 167.425 164.355 168.973 165.875Z" fill="#141413"/>
</g>
<defs>
<clipPath id="clip0_1259_677">
<rect width="226.303" height="192" fill="white"/>
</clipPath>
</defs>
</svg>
