<svg width="161" height="59" viewBox="0 0 161 59" fill="none" xmlns="http://www.w3.org/2000/svg">
<path d="M72.3522 11.2758C72.0807 11.3265 71.9018 11.5876 71.9524 11.8591C72.0031 12.1305 72.2642 12.3095 72.5356 12.2589L72.4439 11.7673L72.3522 11.2758ZM148.827 42.9992L149.066 43.4387V43.4387L148.827 42.9992ZM1.65517 39.4952L1.21116 39.7251L1.65517 39.4952ZM0.862429 32.3012L0.382918 32.1595L0.862429 32.3012ZM72.4439 11.7673L72.5356 12.2589C107.719 5.69281 134.583 9.23286 148.679 16.4733C155.745 20.103 159.462 24.582 159.626 29.0627C159.79 33.5288 156.431 38.3064 148.589 42.5597L148.827 42.9992L149.066 43.4387C157.013 39.1288 160.811 34.0767 160.625 29.0261C160.44 23.9901 156.302 19.2653 149.135 15.5838C134.764 8.2017 107.647 4.68901 72.3522 11.2758L72.4439 11.7673ZM148.827 42.9992L148.589 42.5597C141.552 46.3761 129.808 49.8995 115.875 52.5745C101.954 55.2471 85.8913 57.0647 70.2444 57.4893C54.5935 57.9141 39.382 56.9444 27.1537 54.0551C14.8925 51.1581 5.77548 46.3653 2.09918 39.2653L1.65517 39.4952L1.21116 39.7251C5.10227 47.2399 14.6125 52.1195 26.9238 55.0283C39.268 57.945 54.5743 58.9149 70.2716 58.4889C85.973 58.0628 102.089 56.2393 116.063 53.5566C130.024 50.8762 141.891 47.33 149.066 43.4387L148.827 42.9992ZM0.862429 32.3012L1.34194 32.4428C2.70485 27.8296 6.70946 23.669 12.6313 19.9857C18.5424 16.3091 26.2938 13.1517 35.0246 10.5159C52.4835 5.24515 73.7707 2.08593 91.8584 0.998181L91.8284 0.499083L91.7984 -1.55265e-05C73.6555 1.09104 52.2879 4.25964 34.7356 9.5586C25.9608 12.2077 18.1175 15.3957 12.1032 19.1365C6.09969 22.8706 1.84826 27.1995 0.382918 32.1595L0.862429 32.3012ZM1.65517 39.4952L2.09918 39.2653C1.00713 37.1563 0.6777 34.6912 1.34194 32.4428L0.862429 32.3012L0.382918 32.1595C-0.362905 34.684 0.0148412 37.4147 1.21116 39.7251L1.65517 39.4952Z" fill="#015AE0"/>
</svg>
