<svg width="56" height="43" viewBox="0 0 56 43" fill="none" xmlns="http://www.w3.org/2000/svg">
<path d="M0.00591166 42.318C-0.011644 42.4143 0.0073843 42.5165 0.0607765 42.6029C0.114149 42.6892 0.197186 42.7524 0.291988 42.7787C0.38679 42.8051 0.485997 42.7924 0.568153 42.7438C0.650329 42.6951 0.708397 42.6143 0.731547 42.5196C0.731547 42.5196 0.731547 42.5196 0.731547 42.5196C1.06011 41.1782 1.42636 39.8006 1.81344 38.4537C5.41474 26.4866 10.3377 14.3042 19.5049 6.38835C28.8803 -2.57358 43.415 3.66765 52.1009 13.0919C53.0924 14.0711 54.0952 15.1171 55.1175 16.2416C55.2991 16.081 55.4807 15.9205 55.6623 15.7599C54.6913 14.5713 53.7332 13.4601 52.7787 12.4144C48.2684 7.52787 43.0574 3.02575 36.655 0.942855C30.2257 -1.28906 23.043 0.620782 18.2147 4.78254C8.44769 13.2644 3.88236 25.8514 0.867568 38.1478C0.548978 39.5309 0.256117 40.9436 0.00591166 42.318Z" fill="#2E2D2B"/>
</svg>
