<svg width="482" height="221" viewBox="0 0 482 221" fill="none" xmlns="http://www.w3.org/2000/svg">
<path d="M6.06758 41.0272C6.06758 41.0272 6.06758 41.0272 6.06758 41.0272C31.1794 27.5484 58.7914 18.9805 86.7108 13.109C160.658 -1.79115 237.431 -0.245057 311.426 12.8038C348.445 19.667 385.148 29.5422 418.65 46.2865C450.469 61.8523 487.566 92.2283 473.962 129.491C421.165 225.005 287.203 217.551 187.841 210.568C148.613 206.067 109.58 198.342 72.9315 183.866C39.0191 170.428 -6.9179 143.258 8.64741 103.671C59.175 31.6624 165.896 30.3851 250.534 27.1787C294.821 27.4545 339.326 31.6063 382.218 43.4658C422.77 55.2665 472.23 75.9847 479.636 122.045C483.334 150.756 468.298 177.905 451.236 200.563C468.59 178.134 484.128 151.187 480.766 121.897C473.735 74.7261 423.645 53.2076 382.956 40.8943C339.837 28.4917 295.12 23.9057 250.564 23.2593C165.006 26.5112 59.2914 23.8893 3.48775 101.661C-5.44487 121.556 3.88633 145.185 18.9402 158.415C33.8664 172.482 52.1674 181.741 70.7366 189.325C108.13 204.171 147.541 211.976 187.174 216.53C287.65 222.947 422.083 233.034 478.865 131.133C493.408 89.3864 452.733 57.7092 420.659 42.2859C386.412 25.4798 349.37 15.8695 312.051 9.28524C237.5 -3.1778 160.439 -3.87951 86.4706 11.9946C58.5525 18.2326 30.9891 27.1945 6.06758 41.0272Z" fill="#DB3D8A"/>
</svg>
