<svg width="158" height="80" viewBox="0 0 158 80" fill="none" xmlns="http://www.w3.org/2000/svg">
<path d="M65.5337 79.9994C57.9602 79.9994 50.39 79.5786 42.8617 78.7387C31.6984 77.4912 19.0126 74.9914 9.55449 65.9018C7.31613 63.7513 2.20729 57.9865 3.08755 50.9227C3.0909 50.8928 3.09426 50.8645 3.09929 50.8346C1.7898 49.3376 0.661398 47.533 0.217078 45.3575C-1.22822 38.2871 4.89165 32.8966 8.27519 30.5148C8.38585 30.3917 8.49819 30.2686 8.6122 30.1456C13.5936 24.755 19.6414 20.1162 27.6492 15.544C35.5665 11.0233 43.9851 7.42243 52.6719 4.84275C61.2515 2.29467 70.1127 0.732895 79.0125 0.203986C87.9123 -0.324923 96.8624 0.175711 105.616 1.69425C109.764 2.41276 113.872 3.36081 117.916 4.53173C115.175 3.5421 112.357 2.82192 109.491 2.38449C108.988 2.30798 108.643 1.84061 108.72 1.34164C108.797 0.842669 109.268 0.501705 109.771 0.576551C116.964 1.67429 123.862 4.48017 130.057 8.79294C130.517 8.98421 130.974 9.17715 131.432 9.37507C139.14 12.6932 144.888 16.216 149.52 20.4589C151.556 22.3234 154.317 25.2058 155.412 29.1293C155.903 29.783 156.341 30.4899 156.71 31.2633C158.598 35.2151 158.402 40.5441 156.197 45.1712C154.009 49.7634 150.3 52.9934 147.699 55.0259C144.346 57.6455 140.813 59.831 137.16 61.6589C133.831 64.2253 130.165 66.5205 126.169 68.5331C116.892 73.2067 105.636 76.455 92.716 78.1881C83.7039 79.3973 74.618 80.0011 65.5337 80.0011V79.9994ZM4.83129 52.5843C4.84806 58.1877 8.9576 62.7799 10.8388 64.5879C19.8979 73.2949 32.2165 75.7083 43.0696 76.9208C59.4759 78.7536 76.0968 78.569 92.4695 76.3736C105.185 74.6687 116.243 71.4803 125.334 66.8998C126.271 66.4274 127.192 65.9384 128.092 65.4344C116.178 69.5094 103.536 70.7285 91.9397 71.4803C91.1114 71.5335 90.2664 71.5868 89.4046 71.6367C82.282 72.7876 75.0639 73.3016 67.814 73.1718C54.9824 72.9423 42.305 70.6969 30.134 66.5022C19.9784 63.0011 12.2405 58.8414 5.78365 53.4126C5.47179 53.1514 5.15322 52.8753 4.83129 52.5826V52.5843ZM6.16761 47.1638C7.34128 49.1031 9.06658 50.6815 10.7349 52.0321C21.2476 60.5462 33.8697 65.9351 49.3253 68.5064C63.2182 70.8167 77.6628 70.494 89.2017 69.8171C94.5687 68.9455 99.8788 67.7081 105.105 66.1081C114.68 63.1758 121.749 59.5815 127.353 54.7964C134.432 48.7489 139.239 40.3512 140.54 31.7572C141.157 27.679 140.882 24.2061 139.722 21.4335C139.671 21.3138 139.619 21.1957 139.567 21.0793C136.873 19.8485 134.113 18.7324 131.291 17.7295C118.902 13.9939 106.785 11.8167 95.0382 11.2129C86.2474 10.9452 77.0324 11.4857 67.4032 12.8346C58.5319 14.4014 49.9423 16.9993 41.7718 20.5903C30.518 25.5367 20.3288 32.2645 11.4877 40.5857C9.50419 42.4519 7.45697 44.6141 6.16761 47.1638ZM141.952 22.2053C142.79 24.9995 142.929 28.296 142.364 32.0283C140.998 41.0497 135.966 49.8532 128.557 56.1819C122.755 61.1366 115.477 64.8473 105.65 67.8561C104.582 68.1821 103.512 68.4948 102.437 68.7925C113.757 67.6199 125.519 65.3945 136.175 60.0988C142.193 55.4284 147.059 49.8399 150.712 43.3916C153.589 38.3137 154.599 34.0276 153.799 30.2869C153.774 30.1722 153.749 30.0574 153.72 29.9443C152.064 27.8669 149.788 26.4482 147.699 25.2507C145.82 24.1745 143.903 23.1583 141.953 22.2053H141.952ZM5.06435 50.2624C5.67969 50.8961 6.3336 51.4766 6.97576 52.0171C10.2637 54.7814 13.9004 57.2097 18.0469 59.3886C15.0791 57.6056 12.2573 55.628 9.56791 53.4492C8.14776 52.2982 6.59013 50.9028 5.33597 49.2062C5.22867 49.5522 5.13813 49.9048 5.06435 50.2641V50.2624ZM155.831 34.3768C155.533 37.3923 154.369 40.6705 152.32 44.2881C150.03 48.3314 147.278 52.0454 144.083 55.4184C144.919 54.833 145.744 54.2242 146.559 53.5872C151.681 49.5855 153.561 46.4203 154.53 44.3895C156.064 41.1678 156.514 37.4721 155.833 34.3785L155.831 34.3768ZM3.79175 37.4455C2.34981 39.5894 1.44441 42.1541 2.02454 44.9933C2.29616 46.3222 2.87461 47.4931 3.61403 48.536C3.75654 48.0869 3.92086 47.6478 4.10529 47.2203C3.59894 46.2191 3.21665 45.1297 3.02216 43.9438C2.67676 41.8364 2.93497 39.6643 3.79343 37.4438L3.79175 37.4455ZM9.51258 31.887C5.8155 36.0567 4.24278 40.0119 4.84135 43.651C4.92351 44.1567 5.04759 44.6423 5.20519 45.1097C6.58175 42.8677 8.42441 40.945 10.2185 39.2568C19.2138 30.7909 29.5791 23.9483 41.0257 18.9154C42.357 18.3299 43.7 17.7711 45.0531 17.2372C25.9591 22.0473 16.3014 27.3946 9.9854 31.566C9.83785 31.6641 9.67857 31.7705 9.51258 31.8853V31.887ZM85.8869 1.82897C83.6318 1.82897 81.375 1.8955 79.1215 2.03022C70.3642 2.55081 61.6438 4.08764 53.2001 6.59414C44.649 9.1339 36.3612 12.6783 28.568 17.1291C23.4005 20.0797 19.0713 23.0535 15.3323 26.2403C26.3481 20.2942 37.9038 17.0492 47.164 14.8355C53.9898 13.2038 60.6412 11.9348 67.1098 11.0267C69.9233 10.531 72.7652 10.1368 75.6307 9.8441C81.9836 9.19877 88.4707 9.04409 95.0634 9.38006C108.304 9.77924 120.597 11.9864 131.9 15.9981C133.753 16.5569 135.609 17.1507 137.473 17.7794C136.662 16.7881 135.781 15.9083 134.943 15.1199C133.102 13.3868 131.169 11.8117 129.159 10.4013C121.489 7.23282 113.472 4.91094 105.298 3.49387C98.9013 2.38449 92.3974 1.8273 85.8869 1.8273V1.82897ZM145.785 22.1005C146.739 22.6078 147.684 23.1284 148.621 23.6656C149.661 24.261 150.701 24.8947 151.69 25.6016C150.815 24.3492 149.683 23.0934 148.269 21.8011C144.881 18.6975 140.857 15.9848 135.842 13.4467C135.966 13.5614 136.09 13.6779 136.214 13.7943C137.666 15.1615 139.242 16.7881 140.454 18.8123C142.106 19.3994 143.761 20.0131 145.419 20.6535C145.894 20.8364 146.128 21.367 145.944 21.8377C145.905 21.9358 145.852 22.0256 145.785 22.1005Z" fill="#2E2D2B"/>
</svg>
