<svg width="167" height="202" viewBox="0 0 167 202" fill="none" xmlns="http://www.w3.org/2000/svg">
<path id="target" d="M41.6163 39.5C38.1818 50.1272 34.7505 60.7553 31.3223 71.3845C20.8519 103.849 10.4111 136.322 5.42402e-06 168.805L1.15488 169.358C29.9748 126.293 58.7348 83.1881 87.4352 40.0438L85.6334 39.5C85.622 54.0849 85.6163 68.6699 85.6163 83.2548C85.6163 122.67 85.6579 162.085 85.7409 201.5L87.43 201.823C109.856 144.989 132.189 88.1179 154.43 31.2101C158.495 20.808 162.557 10.4046 166.616 0C162.433 10.3554 158.253 20.712 154.076 31.0699C131.226 87.7355 108.468 144.438 85.8027 201.177L87.4918 201.5C87.5748 162.085 87.6163 122.67 87.6163 83.2548C87.6163 68.6699 87.6106 54.0849 87.5993 39.5L87.5982 36.2428L85.7975 38.9562C57.1645 82.1452 28.5912 125.374 0.0777907 168.642L1.23266 169.195C11.4129 136.639 21.5636 104.074 31.6846 71.4992C34.9984 60.8338 38.3089 50.1674 41.6163 39.5Z" fill="none"
  stroke="#2E2D2B"
  stroke-width="1.5"
  stroke-linecap="round"
  stroke-linejoin="round"/>
</svg>
