<svg width="193" height="232" viewBox="0 0 193 232" fill="none" xmlns="http://www.w3.org/2000/svg">
<path d="M156.966 207.584C149.315 205.931 142.085 208.118 134.03 210.064C135.65 213.526 144.691 206.574 146.461 211.907C139.265 214.026 132.433 215.386 125.064 216.058C123.023 216.242 121.691 213.297 119.113 214.675L121.766 216.581L44.0537 231.772C40.4674 232.472 36.5293 231.691 35.4453 227.701C27.5577 198.559 24.3173 169.365 18.5341 139.712L1.83049 54.1404C1.04634 50.1331 -1.87694 30.7624 1.85356 28.3799L84.6164 12.54C84.824 16.6277 81.5087 13.671 78.891 15.2211C80.736 16.622 83.0539 15.8412 85.8273 15.7264C86.4269 14.4805 85.8676 13.7399 85.9541 12.2013L101.009 9.63499C100.467 13.4069 96.8977 10.8521 95.5946 14.1188C98.1719 14.8939 99.6422 12.7295 102.364 12.5917C102.704 11.2884 101.718 10.4675 101.937 8.87716L145.688 0.104675C148.554 -0.46944 151.074 1.44811 152.625 2.69394C155.773 5.2143 151.552 16.5646 156.136 13.9236C155.825 10.0943 153.097 6.63237 156.309 3.71012L163.816 48.3763C159.63 46.4587 162.738 42.1069 159.878 39.9598C158.955 44.5584 161.014 47.9572 161.043 51.5052L164.11 48.6748C165.05 53.0209 166.612 55.6274 165.615 60.0825C164.15 59.5084 164.323 57.9583 163.516 57.0971C162.167 56.9076 168.336 74.4813 168.411 74.8832L175.849 112.626C178.087 123.987 180.629 134.608 182.803 146.022C186.205 163.854 190.967 180.957 192.997 199.064C190.281 200.557 189.226 197.445 187.035 195.298C184.233 198.846 189.428 198.565 190.322 199.908C192.426 203.083 187.71 202.555 185.98 203.014L164.819 208.629C161.17 209.599 159.976 208.244 156.966 207.596V207.584ZM151.079 14.469C152.515 10.5651 152.625 10.3813 151.541 9.47424C150.722 8.79104 149.073 8.95179 149.436 9.48572C150.831 11.5238 149.597 13.4586 151.079 14.4748V14.469ZM142.01 17.3913C143.024 19.9404 141.237 23.3563 144.489 23.0176L144.299 14.3255C139.513 16.7827 135.529 17.1616 130.628 18.729C134.451 20.79 138.164 16.8287 142.01 17.3913ZM109.975 17.7013C106.948 16.6794 105.385 16.5416 104.145 17.7415C106.492 18.5108 108.326 18.5166 109.975 17.7013ZM98.6044 19.7853C94.845 18.6199 92.014 19.9691 89.1023 21.1804C92.8616 22.3459 95.6926 20.9967 98.6044 19.7853ZM75.4833 206.608C76.4001 206.585 77.6571 208.974 78.4989 208.089C78.9774 207.59 79.1158 205.747 79.825 205.546C91.6738 202.239 104.976 199.679 116.917 198.249L107.155 202.813C119.592 200.838 130.495 198.536 142.431 195.442C138.394 193.472 135.437 196.923 131.447 196.01C137.674 191.589 145.233 192.858 152.411 191.411C156.591 190.567 172.684 185.946 173.324 189.769L173.924 193.375C174.143 194.69 176.582 192.772 176.847 191.899C177.095 191.078 176.928 189.764 176.27 189.178C175.676 190.401 175.578 191.991 173.975 190.969C173.318 189.913 174.575 188.644 174.777 187.553C174.956 186.554 173.284 186.256 172.868 185.033C166.261 165.387 162.34 145.643 159.14 124.676C160.939 124.579 160.408 126.651 161.556 127.34C162.824 122.179 158.696 119.498 157.347 115.554C152.129 100.311 156.442 101.172 154.637 93.2721C153.247 87.175 153.997 80.8482 150.803 75.5147C149.972 77.0763 151.714 79.0398 148.952 79.08C149.194 74.2287 148.254 70.3419 147.014 65.9557C145.25 59.7208 145.192 53.3596 144.218 46.8549L140.389 21.2895L114.057 25.4059C113.832 24.0625 114.23 23.0119 113.797 22.8339C114.697 23.1956 93.5131 25.7963 92.7117 26.6575C94.1012 27.5761 95.191 28.4258 95.0065 29.2066C94.6259 30.8198 54.8474 36.2567 49.3641 37.8585C47.7669 35.9697 46.0026 34.6147 43.1139 35.1831L22.38 39.2766C24.669 41.1711 26.6121 37.8987 28.4168 40.8037C25.8971 43.1863 22.9277 41.751 19.5316 39.5005C18.6437 41.8314 20.3042 43.3987 20.2754 45.7985C19.0877 46.5449 17.9691 46.1372 17.8538 46.9008C17.6404 48.3246 17.7384 50.2766 17.7384 51.4593C17.7384 52.7051 18.7013 52.8774 19.4797 52.6247C20.137 52.4123 20.2062 51.6143 19.9929 51.0402C19.843 50.6268 19.0473 50.0872 19.0012 48.8069C19.1223 47.3888 20.6617 48.6232 21.1115 49.1226C21.8091 49.8977 21.048 51.4708 21.3709 52.6305C24.9746 65.5653 26.7159 78.1155 29.1202 91.1938L37.4173 136.359C32.2395 135.728 37.2674 154.237 39.0778 157.005C39.4641 156.367 39.8101 155.696 40.6058 153.858C46.0141 160.88 36.7369 166.064 43.0966 181.87C45.2761 177.162 40.427 173.338 43.8519 169.159L52.3739 210.501C60.6248 209.777 67.6591 206.826 75.4833 206.614V206.608ZM157.808 33.1737C158.984 30.8485 159.059 27.622 156.303 26.0776C155.75 28.8277 157.03 30.4983 157.808 33.1737ZM87.0208 28.0182C84.6395 26.8125 81.3068 26.5025 79.923 29.551C82.5753 29.5798 84.2532 28.5119 87.0208 28.0182ZM11.4076 41.6821C12.7337 39.8794 11.4422 36.7964 10.2947 36.228C8.92248 35.5448 8.3286 38.2604 8.34589 39.4201C8.36319 40.5798 10.116 43.4332 11.4076 41.6821ZM16.0721 43.4044C17.3002 41.728 16.9831 38.335 14.6422 37.9102C13.4833 39.2249 14.9997 41.5156 16.0721 43.4044ZM20.581 56.8675C20.0044 53.2792 18.1248 52.596 17.5828 55.57C18.0383 57.7803 19.8545 59.2787 20.581 56.8675ZM152.25 74.5215C153.386 71.5074 152.446 69.2224 150.849 66.3576C149.92 69.0617 149.453 72.6097 152.25 74.5215ZM24.8593 88.2543C26.6409 98.5769 27.3789 109.152 31.2248 119.377C32.3779 117.844 27.2406 87.7147 24.8593 88.2543ZM188.598 184.78C187.22 183.179 187.323 181.967 186.845 181.186C185.622 181.462 185.726 183.46 186.568 184.51C186.954 184.993 187.888 186.411 188.598 184.775V184.78ZM182.503 192.221C181.898 190.039 181.834 187.771 180.837 185.613C179.707 188.564 180.508 190.814 180.376 193.742C181.194 193.759 182.071 192.743 182.503 192.227V192.221ZM125.116 205.747C121.437 204.461 118.473 205.816 115.591 207.148C119.402 207.9 122.106 206.579 125.116 205.747ZM52.3623 214.847C48.8855 214.675 48.0264 214.445 45.9161 215.438C48.1648 217.631 52.5757 217.637 52.3623 214.847ZM56.9577 219.669C58.2665 219.044 58.2319 217.752 57.0961 217.643L49.958 219.606C52.3393 220.508 54.7782 220.553 56.9519 219.669H56.9577Z" fill="#141413"/>
</svg>
