<svg width="184" height="184" viewBox="0 0 184 184" fill="none" xmlns="http://www.w3.org/2000/svg">
<g clip-path="url(#clip0_1512_865)">
<path d="M160.309 70.8579C159.42 68.7448 158.644 66.8585 157.537 64.9638C157 64.0438 157.318 62.983 158.105 62.4137C158.788 61.9201 160.015 62.044 160.585 62.9326C163.047 66.764 166.234 75.3216 167.377 79.9638C169.766 89.6789 170.432 99.5662 169.05 109.466C168.162 115.829 166.437 121.687 164.152 127.638C161.226 135.269 157.264 142.113 152.276 148.526C149.711 151.824 147.228 154.916 143.923 157.495C142.112 158.909 140.463 160.373 138.499 161.633C130.212 166.944 122.361 170.204 112.811 172.651C107.023 174.134 101.264 174.776 95.3056 174.934C86.1348 175.178 76.175 172.857 67.7581 169.277C57.4327 164.887 52.7565 161.241 44.7052 153.485C40.6217 149.551 35.4849 142.852 32.7295 137.903C28.518 130.346 25.2545 120.511 23.9078 111.894C23.4885 109.21 23.3005 106.607 23.094 103.866C22.5425 96.4973 23.3109 86.1815 25.7027 79.2476C26.281 77.5713 26.9213 75.9392 27.3365 74.2125C27.5368 73.3765 27.7083 72.7631 28.0883 71.9754C28.4684 71.1877 28.7039 70.2824 29.0632 69.4296C30.631 65.7137 32.1656 62.1533 34.2104 58.6558C36.7262 54.356 39.6613 50.5288 43.1354 46.9747C52.9816 36.8983 62.9889 31.1785 76.3526 27.0719C78.162 26.5153 79.9197 26.2716 81.7353 25.8179C83.5509 25.3642 85.3706 25.236 87.3266 24.9798C96.5531 23.7762 105.809 24.1144 114.851 26.2674C116.336 26.6203 119.769 27.2568 119.143 29.3426C118.906 30.1324 118.173 30.939 117.183 30.6744C110.01 28.7503 102.675 27.6244 95.2436 28.0277C82.8754 28.6999 75.0142 30.5967 63.9452 36.0518C56.968 39.4904 50.3213 44.8363 44.9799 50.5351C40.2954 55.5344 36.6952 61.1765 33.9791 67.4824C33.5144 68.562 32.9712 69.5388 32.6035 70.6437L31.6017 73.6496L30.0464 78.1637C28.9372 81.3838 28.0532 84.5157 27.5823 87.9207C27.0267 91.9349 26.4958 96.1696 26.6879 100.194L26.9296 105.315L27.1547 108.038L27.6091 111.325C28.2329 115.835 29.4784 119.984 30.8705 124.275C32.3825 128.938 34.1836 133.274 36.7634 137.41C40.1405 142.825 43.9513 147.709 48.5945 152.053C51.6205 154.884 54.5658 157.573 57.9305 159.936C60.469 161.719 63.0323 163.003 65.8207 164.36C75.8197 169.223 86.6181 171.781 97.7408 171.128C111.827 170.3 125.565 165.897 137.285 157.867C140.354 155.764 143.056 153.454 145.594 150.769C147.699 148.543 149.339 146.123 151.185 143.678C153.606 140.472 155.531 137.158 157.396 133.612C159.067 130.436 160.22 127.277 161.496 123.891C167.932 106.801 167.422 87.7632 160.307 70.8579H160.309Z" fill="#DB3D8A"/>
<path d="M146.107 105.156C147.668 92.9894 144.686 80.8335 137.847 70.7592C136.936 69.4191 136.122 68.2491 135.052 67.0518C134.437 66.3649 134.645 65.0394 135.313 64.4891C135.868 64.0312 137.105 63.7434 137.793 64.5563C146.472 74.8091 150.913 88.1308 150.174 101.679C149.748 109.466 147.819 116.845 144.498 123.851C141.104 131.014 136.221 137.011 130.302 142.144C121.78 149.532 110.423 153.487 99.3586 154.372C93.852 154.811 88.6553 154.132 83.3201 152.851C76.1529 151.128 69.8676 148.032 63.9396 143.59C53.0834 135.452 46.4098 122.582 44.8152 109.063L44.5509 106.811C43.7515 100.035 45.4762 89.7545 47.5954 83.2386C49.5246 77.3088 54.7007 68.56 58.9659 64.1362C69.2169 53.499 80.3664 47.5985 95.1306 46.3361C100.284 45.895 105.167 46.3613 110.213 47.3591C114.41 48.1888 118.357 49.6235 122.083 51.6547C122.924 52.1126 123.324 53.102 123.046 53.8897C122.808 54.5619 121.715 55.4987 120.819 55.0513C115.213 52.2576 109.368 50.5078 103.033 50.0394C94.0049 49.3735 84.9105 51.0624 76.7704 55.2488C70.6483 58.3975 65.2347 62.8023 60.6782 67.9571C57.2433 71.8431 54.8742 76.2984 52.5133 80.8608C51.8978 82.0518 51.5942 83.2827 51.1749 84.5998C48.9297 91.6555 47.742 98.9297 48.2915 106.324C48.529 109.521 49.1053 112.346 49.8819 115.44C52.1374 124.424 56.7765 132.471 63.669 138.578C66.1786 140.802 68.903 142.51 71.7162 144.251C75.2461 146.436 78.9227 147.757 82.8719 148.902C90.7042 151.173 98.6089 151.383 106.58 149.547C110.638 148.612 114.435 147.438 118.186 145.583C121.936 143.728 125.074 141.781 128.046 139.073C130.686 136.668 133.125 134.377 135.356 131.522C141.296 123.918 144.868 114.774 146.101 105.158L146.107 105.156Z" fill="#DB3D8A"/>
<path d="M135.89 53.8687L120.593 73.6916L117.392 78.0061L107.232 91.416L99.3355 101.828C98.6497 102.732 97.5695 103.059 96.6669 102.431C95.7642 101.803 95.5474 100.606 96.3302 99.5704L117.553 71.4839L132.621 51.8626C131.629 50.6317 131.28 49.3315 130.96 47.8926C129.882 43.0529 129.62 38.1439 129.027 33.2454C128.775 31.1554 129.335 29.7543 130.657 28.1285C134.804 23.022 139.071 18.1677 143.562 13.3448C146.396 10.3011 149.081 7.37713 152.204 4.67162C153.088 3.90702 153.992 3.23275 155.176 3.16553C156.766 3.28106 157.698 4.46157 158.026 6.00968C159.096 11.0489 159.573 16.0713 160.048 21.2786C165.148 20.4846 169.959 20.0246 174.922 19.6234C176.273 19.5141 177.514 19.9657 178.448 21.0265C178.892 21.7764 178.946 22.6376 178.721 23.5178C177.615 27.8701 174.625 34.4785 171.789 38.0389L160.982 51.6043L159.01 53.7888C157.944 54.9672 156.55 55.3916 154.992 55.339L151.485 55.2214L141.507 54.6249C139.621 54.5114 137.908 54.3224 135.89 53.8624V53.8687ZM163.275 34.7557L151.359 34.8103L146.66 40.5344C147.499 41.0007 148.321 40.8326 149.209 40.8515L153.282 40.9419C154.273 40.9629 155.075 41.8031 155.064 42.679C155.054 43.6264 154.387 44.4582 153.36 44.5401L143.465 44.5149L138.621 50.5918C141.515 50.9951 144.2 51.1442 146.988 51.264L152.282 51.4929C153.596 51.5497 154.765 51.7576 156.116 51.4551C160.85 45.7815 165.588 40.2781 169.884 34.2726C172.227 30.9978 173.453 27.2631 174.883 23.4716C169.676 23.6144 164.985 24.3265 159.98 25.0827C158.749 25.2696 156.797 25.0218 156.614 23.4905L155.337 12.8302C155.131 11.1035 155.116 9.44618 154.527 7.83505C153.988 8.04091 153.594 8.44632 153.177 8.84962C149.727 12.1937 146.654 15.6869 143.374 19.2264C139.829 23.0515 136.518 26.885 133.284 30.939C132.66 31.7204 132.708 32.6006 132.803 33.5101L133.358 38.8245C133.705 42.1476 134.03 45.3656 135.112 48.6488C136.659 46.9158 137.9 45.2543 139.214 43.5486C139.606 43.0382 139.071 42.3282 138.98 41.8115C138.547 39.3223 137.952 36.9382 137.714 34.4722C137.621 33.5038 138.553 32.6426 139.245 32.5523C140.038 32.4493 140.978 32.8946 141.174 33.7874L142.465 39.6794L153.152 26.2611C153.964 25.2423 155.304 24.5933 156.331 25.4377C158.512 27.2337 155.093 29.3405 154.447 30.9222L163.341 31.1638C164.33 31.1911 165.08 32.191 165.014 33.0102C164.948 33.8294 164.303 34.7452 163.273 34.7494L163.275 34.7557Z" fill="#DB3D8A"/>
<path d="M126.658 98.1945C126.247 92.002 124.218 86.3347 120.531 81.6358C119.821 80.7305 119.716 79.6193 120.472 78.8967C121.227 78.1741 122.644 78.1825 123.407 79.1823C133.255 92.1049 132.784 109.739 122.397 122.328C116.372 129.627 106.521 133.818 97.3132 133.582C91.6786 133.44 86.5128 131.898 81.5866 129.245C76.9868 126.77 73.3164 123.294 70.6168 118.723C67.2315 112.993 65.7174 106.389 66.0355 99.7006C66.3516 93.046 68.6587 87.1308 72.7856 81.9677C79.075 74.1032 88.4812 69.398 98.4761 68.9043C101.851 68.7384 105.065 69.2152 108.314 70.0533C109.27 70.2991 110.194 71.1099 110.111 72.1518C110.018 73.3155 108.797 73.9247 107.719 73.6726C104.406 72.8996 101.269 72.3577 97.8565 72.6538C89.3239 73.3974 81.3697 77.3318 75.9148 84.0745C73.8018 86.6855 72.201 89.4562 71.1518 92.7057C67.9792 102.526 70.2326 113.636 77.1912 121.254C80.5477 124.928 84.9678 127.163 89.6028 128.61C94.8594 130.251 100.172 130.343 105.437 128.835C110.702 127.327 115.752 124.416 119.433 119.981C124.462 113.923 127.191 106.229 126.658 98.1945Z" fill="#DB3D8A"/>
<path d="M137.442 178.576C145.83 182.334 158.801 179.366 166.58 174.871C169.649 173.096 172.337 171.029 174.423 168.132C177.044 164.494 178.717 159.35 175.697 155.496C171.901 158.161 166.237 159.564 162.523 156.476C161.594 155.703 160.935 154.428 161.001 153.231C161.1 151.45 162.247 150.019 163.736 149.282C167.687 147.329 172.151 148.137 175.825 150.477C178.696 147.583 180.388 143.642 180.216 139.533C180.018 134.784 177.064 130.39 172.541 129.144C171.438 128.84 170.126 128.997 170.079 127.338C170.052 126.394 171.033 125.416 172.151 125.485C178.626 125.89 183.428 132.488 183.953 139.054C184.364 144.205 182.098 149.108 178.634 153.057C183.096 159.161 180.727 166.698 176.149 172.035C168.427 180.437 155.24 184.546 144.169 183.943C140.074 183.721 136.217 182.584 132.894 180.316C131.054 179.057 129.773 177.301 128.97 175.274C128.499 174.087 129.151 172.913 130.238 172.621C131.591 172.26 132.229 173.319 132.694 174.499C133.464 176.457 135.544 177.728 137.442 178.578V178.576ZM172.646 152.975C170.364 151.717 167.881 151.454 165.624 152.458C165.178 152.656 164.777 153.044 164.921 153.54C166.704 155.451 170.61 154.435 172.646 152.975Z" fill="#DB3D8A"/>
<path d="M108.595 103.194C109 100.781 108.122 98.5917 107.178 96.5332C106.744 95.5858 107.48 94.565 108.219 94.2394C110.813 93.0967 112.296 99.1484 112.383 101.199C112.701 108.714 107.133 114.886 99.8726 115.862C98.0839 116.104 96.6814 116.07 94.965 115.682C86.86 113.85 81.9441 105.727 84.4351 97.5226C86.2424 91.5654 92.0217 87.526 98.1252 87.9335C99.16 88.0028 99.9118 88.8578 99.9779 89.7379C100.032 90.4542 99.286 91.5864 98.3358 91.5633C95.3636 91.4898 92.4864 92.3825 90.3734 94.6679C87.9733 97.2621 87.0211 100.766 87.8638 104.385C89.0515 109.481 94.1822 112.953 99.507 112.126C104.148 111.405 107.779 108.063 108.597 103.194H108.595Z" fill="#DB3D8A"/>
<path d="M9.26757 120.267C11.2009 123.004 13.6898 126.329 16.914 127.562C17.827 127.911 18.5334 128.837 18.2876 129.74C18.0273 130.696 17.0152 131.492 15.9061 131.108C13.3428 130.215 11.2298 128.516 9.35019 126.434C3.67216 120.151 0.394225 112.978 0.0183063 104.309C-0.155195 100.301 0.904401 96.4593 3.20536 93.3273C5.50218 90.1996 9.3915 88.7586 12.9586 89.9749C13.9438 90.3109 14.5139 91.273 14.3445 92.1279C14.1752 92.9828 13.1775 93.7264 12.2068 93.4744C10.7857 93.1068 9.45346 93.0522 8.10883 93.863C4.1782 96.2387 3.37266 101.843 3.8312 106.183C4.38062 111.363 6.30979 116.078 9.2655 120.267H9.26757Z" fill="#DB3D8A"/>
<path d="M49.3173 23.5703C50.0422 24.3938 50.0175 25.3012 49.5486 25.9566C49.024 26.6876 47.828 27.1077 47.0411 26.4166C45.7254 25.2613 44.6617 23.8707 43.4595 22.4907L33.7868 11.3997C33.0144 10.5154 32.7727 9.65629 33.4791 8.70894C34.0946 7.88342 35.3855 7.53683 36.1952 8.47998L42.9473 16.3444L49.3152 23.5703H49.3173Z" fill="#DB3D8A"/>
<path d="M63.8089 16.5544C63.9494 17.59 63.1996 18.4029 62.3693 18.6319C61.7496 18.802 60.4215 18.2979 60.2563 17.3358C59.4032 12.3449 58.5006 7.39604 57.061 2.47654C56.6933 1.22251 57.8665 -0.0588263 58.986 0.00208972C60.0188 0.0588046 60.5186 0.905327 60.7768 1.79596C62.1793 6.65034 63.1314 11.5194 63.8089 16.5544Z" fill="#DB3D8A"/>
<path d="M37.6495 34.3565C38.7174 34.6569 39.4259 35.4866 39.3123 36.3751C39.1801 37.4002 38.2341 38.2635 37.1208 37.9841C32.8328 36.9044 28.708 35.6189 24.6473 33.9406C23.6352 33.5226 22.9143 32.7054 23.187 31.6552C23.4059 30.8128 24.4366 29.855 25.4921 30.2877C29.4454 31.9093 33.4256 33.1655 37.6495 34.3565Z" fill="#DB3D8A"/>
<path d="M44.8537 172.027C44.2465 172.47 43.4058 172.432 42.8171 172.144C42.3607 171.922 41.8051 171.164 41.9517 170.445C42.1459 169.494 42.9431 168.947 43.6537 168.401C45.1987 167.217 52.0726 162.1 52.8327 165.906C53.0372 166.929 52.2792 167.488 51.3497 167.88C48.9806 168.882 46.9791 170.477 44.8517 172.029L44.8537 172.027Z" fill="#DB3D8A"/>
<path d="M58.0073 179.952C57.2658 180.828 55.8861 180.587 55.3139 179.973C54.5848 179.19 54.7748 178.074 55.4647 177.266C57.3154 175.096 59.2652 173.109 61.7355 171.676C62.7807 171.069 64.1005 171.422 64.5281 172.586C64.7966 173.317 64.3546 174.006 63.7804 174.424C61.6013 176.012 59.7878 177.848 58.0073 179.952Z" fill="#DB3D8A"/>
<path d="M36.8089 161.547C36.1211 161.896 35.4353 161.778 34.8797 161.474C34.448 161.237 33.9192 160.596 34.0494 159.903C34.1361 159.436 34.51 158.745 34.9623 158.497C36.6725 157.561 43.4742 154.561 43.9823 157.733C44.1083 158.514 43.5052 159.451 42.6253 159.628C40.6135 160.031 38.7401 160.566 36.8109 161.547H36.8089Z" fill="#DB3D8A"/>
</g>
<defs>
<clipPath id="clip0_1512_865">
<rect width="184" height="184" fill="white"/>
</clipPath>
</defs>
</svg>
