<svg width="19" height="21" viewBox="0 0 19 21" fill="none" xmlns="http://www.w3.org/2000/svg">
<path d="M7.6875 5.92547L1.8121 8.46133C0.961662 8.82824 0 8.23112 0 7.33572V4.15184C0 3.66598 0.296609 3.22568 0.758323 3.02683L6.93324 0.361959L7.5166 0.109853C8.36704 -0.257063 9.32928 0.340063 9.32928 1.23486V3.49495C9.32928 4.30216 10.1971 4.84129 10.9641 4.50988L16.394 2.16576C17.2445 1.79885 18.2067 2.39597 18.2067 3.29077V7.09545C18.2067 7.58132 17.9101 8.02162 17.4484 8.22046L7.69098 12.4329C7.22984 12.6323 6.93266 13.0726 6.93266 13.5579V13.7337C6.93266 14.5687 7.82943 15.1256 8.6231 14.7829L16.394 11.4286C17.2445 11.0617 18.2061 11.6588 18.2061 12.5536V16.0068C18.2061 16.4926 17.9095 16.9329 17.4478 17.1318L9.3287 20.6364L9.2951 20.6506L8.74475 20.8879C7.89432 21.2548 6.93208 20.6577 6.93208 19.7629V17.3502C6.93208 16.5524 6.14884 15.9979 5.38067 16.1813L1.81094 17.7224C0.961662 18.0917 0 17.4946 0 16.5992V12.4039C0 11.918 0.296609 11.4777 0.758323 11.2789L8.57154 7.90622C9.0066 7.71862 9.2951 7.31619 9.32638 6.86347C9.27019 6.09827 8.43192 5.60353 7.6875 5.92547Z" fill="#005AE0"/>
</svg>
