<svg width="129" height="21" viewBox="0 0 129 21" fill="none" xmlns="http://www.w3.org/2000/svg">
<g clip-path="url(#clip0_1022_1102)">
<path d="M7.6875 5.92595L1.8121 8.46181C0.961662 8.82873 0 8.2316 0 7.33621V4.15233C0 3.66646 0.296609 3.22616 0.758323 3.02732L6.93324 0.362447L7.5166 0.110341C8.36704 -0.256575 9.32928 0.340551 9.32928 1.23535V3.49543C9.32928 4.30265 10.1971 4.84178 10.9641 4.51037L16.394 2.16625C17.2445 1.79934 18.2067 2.39646 18.2067 3.29126V7.09594C18.2067 7.58181 17.9101 8.02211 17.4484 8.22095L7.69098 12.4334C7.22984 12.6328 6.93266 13.0731 6.93266 13.5584V13.7342C6.93266 14.5692 7.82943 15.1261 8.6231 14.7834L16.394 11.4291C17.2445 11.0622 18.2061 11.6593 18.2061 12.5541V16.0073C18.2061 16.4931 17.9095 16.9334 17.4478 17.1323L9.3287 20.6369L9.2951 20.6511L8.74475 20.8884C7.89432 21.2553 6.93208 20.6582 6.93208 19.7634V17.3506C6.93208 16.5529 6.14884 15.9984 5.38067 16.1818L1.81094 17.7229C0.961662 18.0922 0 17.495 0 16.5996V12.4044C0 11.9185 0.296609 11.4782 0.758323 11.2794L8.57154 7.90671C9.0066 7.71911 9.2951 7.31668 9.32638 6.86396C9.27019 6.09876 8.43192 5.60401 7.6875 5.92595Z" fill="#005AE0"/>
<path d="M24.0001 4.4289H30.4846C31.7635 4.4289 32.8056 4.63773 33.6107 5.05432C34.4153 5.47144 35.0086 6.11025 35.3886 6.97234C35.7692 7.83389 35.9595 8.94658 35.9595 10.3099C35.9595 11.6731 35.7666 12.8222 35.3808 13.6897C34.9945 14.5571 34.399 15.2018 33.5944 15.6243C32.7893 16.0468 31.7525 16.2578 30.4846 16.2578H24.0001V4.4289ZM26.9444 13.7732H29.8393C30.3577 13.7732 30.7928 13.6747 31.1461 13.4776C31.4988 13.2806 31.7719 12.9256 31.9648 12.4132C32.1577 11.9007 32.2541 11.2052 32.2541 10.3265C32.2541 9.44777 32.1603 8.7581 31.9732 8.25637C31.7855 7.75518 31.5156 7.40606 31.1628 7.20848C30.8096 7.01143 30.3687 6.9129 29.8393 6.9129H26.9444L27.6226 6.20342V14.4666L26.9444 13.7738V13.7732Z" fill="#2E2D2B"/>
<path d="M39.8463 16.1303C39.0192 15.8995 38.3519 15.4712 37.845 14.8463C37.3377 14.2209 37.084 13.362 37.084 12.2696V4.4289H40.6897V12.2525C40.6897 12.8496 40.8579 13.2806 41.1939 13.5451C41.5304 13.8102 42.0729 13.9424 42.823 13.9424C43.5731 13.9424 44.0857 13.8075 44.4275 13.5371C44.7692 13.2667 44.9401 12.8388 44.9401 12.253V4.4289H48.5459V12.2696C48.5459 13.3625 48.2922 14.2214 47.7848 14.8463C47.2774 15.4717 46.6075 15.8995 45.7751 16.1303C44.9422 16.3611 43.9526 16.4768 42.8057 16.4768C41.6589 16.4768 40.6719 16.3611 39.8447 16.1303H39.8463Z" fill="#2E2D2B"/>
<path d="M52.2358 4.4289H57.3469L60.8866 16.2572H57.0822L54.8823 7.03124H54.7004L52.4507 16.2572H48.6626L52.2353 4.4289H52.2358ZM52.9969 11.4584H56.5864L56.9339 13.8916H52.6661L52.9969 11.4584Z" fill="#2E2D2B"/>
<path d="M63.575 16.0457C62.7867 15.7699 62.1718 15.3389 61.7305 14.7531C61.2891 14.1673 61.0082 13.3844 60.8871 12.404H64.5757C64.6197 12.8324 64.7219 13.1756 64.8818 13.4348C65.0416 13.6939 65.2707 13.891 65.5684 14.0265C65.8662 14.1614 66.2629 14.2294 66.7593 14.2294C67.3878 14.2294 67.8538 14.1336 68.1573 13.9424C68.4602 13.7507 68.6122 13.4749 68.6122 13.1146C68.6122 12.8217 68.499 12.585 68.2731 12.4051C68.0472 12.2252 67.7631 12.0817 67.4213 11.974C67.0796 11.8669 66.6052 11.7518 65.9988 11.6276C64.995 11.4359 64.1626 11.2276 63.5011 11.0022C62.8396 10.7768 62.2714 10.4137 61.7976 9.91252C61.3232 9.41133 61.0863 8.73236 61.0863 7.87616C61.0863 7.15543 61.2624 6.52198 61.6157 5.97528C61.9685 5.42911 62.5529 4.99806 63.369 4.68267C64.1852 4.36729 65.2434 4.20933 66.5449 4.20933C67.6698 4.20933 68.6206 4.34426 69.3985 4.61467C70.1758 4.88508 70.7933 5.3188 71.2509 5.91584C71.7085 6.51288 71.9758 7.3075 72.0534 8.29864H68.4807C68.4477 7.84832 68.3675 7.49598 68.2406 7.24271C68.1138 6.98944 67.9067 6.8031 67.6205 6.6853C67.3338 6.56696 66.9643 6.50806 66.5124 6.50806C66.0606 6.50806 65.7351 6.54768 65.4704 6.6264C65.2057 6.70511 65.0154 6.82666 64.8996 6.98997C64.7838 7.15329 64.7261 7.34231 64.7261 7.55596C64.7261 7.84885 64.8362 8.07964 65.0568 8.24884C65.2775 8.41805 65.5611 8.56155 65.9086 8.67989C66.2561 8.79822 66.7274 8.91924 67.3228 9.04346C68.3486 9.23516 69.1836 9.44078 69.8288 9.66032C70.4741 9.87985 71.0365 10.2493 71.5161 10.7671C71.9957 11.2854 72.2358 11.9837 72.2358 12.8624C72.2358 13.5836 72.0623 14.2085 71.7148 14.7381C71.3673 15.2677 70.7802 15.6875 69.9531 15.997C69.1259 16.3064 68.0178 16.4617 66.6283 16.4617C65.3818 16.4617 64.3649 16.3236 63.5766 16.0478L63.575 16.0457Z" fill="#2E2D2B"/>
<path d="M73.2923 4.42896H76.9316V16.2573H73.2923V4.42896ZM77.2791 11.2893H76.7004V9.59937H77.048L77.8751 8.06153C78.4595 7.05914 78.9858 6.30415 79.4549 5.79706C79.9235 5.28998 80.4556 4.92694 81.051 4.7074C81.6465 4.48786 82.4238 4.37809 83.3835 4.37809H84.1939V7.25084H82.7881C82.4683 7.25084 82.1926 7.32152 81.961 7.46235C81.7293 7.60317 81.5144 7.81147 81.3157 8.08776C81.117 8.36406 80.8581 8.79511 80.5384 9.38036C80.3507 9.75197 80.1636 10.0845 79.9759 10.3774L79.9429 9.17743L84.7233 16.2578H80.3565L77.2796 11.2898L77.2791 11.2893Z" fill="#2E2D2B"/>
<path d="M88.5599 4.4289H93.671L97.2107 16.2572H93.4063L91.2064 7.03124H91.0245L88.7748 16.2572H84.9867L88.5594 4.4289H88.5599ZM89.321 11.4584H92.9105L93.258 13.8916H88.9903L89.321 11.4584Z" fill="#2E2D2B"/>
<path d="M98.0215 4.4289H101.644V13.6045H106.358V16.2572H98.0215V4.4289Z" fill="#2E2D2B"/>
<path d="M110.394 4.4289H115.506L119.045 16.2572H115.241L113.041 7.03124H112.859L110.609 16.2572H106.821L110.394 4.4289H110.394ZM111.156 11.4584H114.745L115.093 13.8916H110.825L111.156 11.4584Z" fill="#2E2D2B"/>
</g>
<defs>
<clipPath id="clip0_1022_1102">
<rect width="129" height="21" fill="white"/>
</clipPath>
</defs>
</svg>
